<?xml version="1.0" standalone="no"?>
<!DOCTYPE svg PUBLIC "-//W3C//DTD SVG 20010904//EN"
 "http://www.w3.org/TR/2001/REC-SVG-20010904/DTD/svg10.dtd">
<svg version="1.0" xmlns="http://www.w3.org/2000/svg"
 width="16.000000pt" height="16.000000pt" viewBox="0 0 16.000000 16.000000"
 preserveAspectRatio="xMidYMid meet">

<g transform="translate(0.000000,16.000000) scale(0.100000,-0.100000)"
fill="#000000" stroke="none">
<path d="M0 80 l0 -80 80 0 80 0 0 80 0 80 -80 0 -80 0 0 -80z m70 4 c6 -14
10 -27 10 -28 0 -1 -13 -3 -30 -3 -16 0 -30 2 -30 3 0 15 22 54 30 54 6 0 15
-12 20 -26z m41 -18 c5 -6 9 1 9 17 0 15 5 27 11 27 6 0 9 -12 7 -27 -2 -20
-9 -29 -25 -31 -20 -3 -23 1 -22 30 1 21 3 26 6 13 3 -11 9 -24 14 -29z"/>
</g>
</svg>
